<svg width="51" height="49" viewBox="0 0 51 49" fill="none" xmlns="http://www.w3.org/2000/svg">
<path d="M25.078 0C38.9335 0 50.1559 11.0681 50.1559 24.7333C50.1546 29.9155 48.5055 34.9669 45.4408 39.1764C42.376 43.3858 38.05 46.5414 33.0716 48.199C31.8177 48.4463 31.3475 47.6734 31.3475 47.0242C31.3475 46.1894 31.3788 43.5306 31.3788 40.2225C31.3788 37.9038 30.5951 36.4198 29.686 35.6469C35.2659 35.0285 41.1279 32.9262 41.1279 23.4348C41.1279 20.7141 40.1561 18.5191 38.5574 16.7877C38.8081 16.1694 39.6859 13.6342 38.3066 10.2334C38.3066 10.2334 36.2063 9.55324 31.4102 12.7686C29.4039 12.2121 27.2723 11.9338 25.1407 11.9338C23.009 11.9338 20.8774 12.2121 18.8712 12.7686C14.075 9.58415 11.9747 10.2334 11.9747 10.2334C10.5954 13.6342 11.4732 16.1694 11.724 16.7877C10.1252 18.5191 9.15346 20.7451 9.15346 23.4348C9.15346 32.8953 14.9841 35.0285 20.5639 35.6469C19.8429 36.2652 19.1846 37.3473 18.9652 38.9549C17.5232 39.6042 13.9183 40.6554 11.6613 36.9144C11.191 36.1724 9.78041 34.3484 7.80552 34.3793C5.70524 34.4102 6.95914 35.5541 7.83687 36.0179C8.90268 36.6053 10.1252 38.8004 10.4074 39.5114C10.9089 40.9027 12.539 43.5615 18.8398 42.4176C18.8398 44.489 18.8712 46.4368 18.8712 47.0242C18.8712 47.6734 18.401 48.4154 17.1471 48.199C12.1523 46.5593 7.80782 43.4101 4.72999 39.1981C1.65216 34.9861 -0.00276008 29.9252 3.45547e-06 24.7333C3.45547e-06 11.0681 11.2224 0 25.078 0Z" fill="black"/>
</svg>
