<svg width="551" height="497" viewBox="0 0 551 497" fill="none" xmlns="http://www.w3.org/2000/svg">
<g clip-path="url(#clip0_38_45)">
<path d="M288.64 394.344L350.647 290.892L350.942 328.727L481.442 328.453C504.76 326.154 525.205 317.339 540.01 300.762C492.758 390.653 479.148 454.257 381.11 454.295H350.942L350.647 496.334L288.64 394.344ZM139.273 455.209C69.5023 435.477 36.9498 355.538 5.03859 299.208C19.6648 311.575 47.036 329.278 62.9337 329.279C93.4244 329.345 123.915 329.398 154.406 329.458H246.778L246.483 454.844L246.188 455.21L139.273 455.209ZM0 266.452L44.5916 181.87L1.10785 159.657H131.411L194.401 266.034L151.683 242.246C137.981 269.154 124.28 296.062 110.578 322.969C94.8098 322.713 79.0412 322.456 63.2726 322.2C32.5249 315.533 11.134 293.029 0 266.452ZM435.453 321.69L377.867 222.99L494.217 157.464L550.524 262.378C552.229 287.486 508.64 322.425 481.585 322.153L435.453 321.69ZM94.8556 90.7494L154.3 7.89657C211.955 -12.0735 245.353 31.0388 266.432 58.2148L210.419 158.195L94.8556 90.7494ZM320.086 135.347C308.13 109.134 292.155 79.149 272.179 53.078C254.294 29.737 232.685 9.37249 216.315 0.274107L366.665 0C393.666 2.25434 406.786 16.8937 421.105 36.9212L442.724 72.2888L476.135 52.4574L413.244 156.641L277.634 156.915L320.086 135.347Z" fill="black"/>
</g>
<defs>
<clipPath id="clip0_38_45">
<rect width="550.574" height="496.335" fill="white"/>
</clipPath>
</defs>
</svg>
